<svg xmlns="http://www.w3.org/2000/svg" xmlns:xlink="http://www.w3.org/1999/xlink" width="393.484" height="110.54" viewBox="0 0 393.484 110.54"><defs><polygon id="a" points="0 0 393.484 0 393.484 110.54 0 110.54"/></defs><g fill="none" fill-rule="evenodd"><mask id="b" fill="#fff"><use xlink:href="#a"/></mask><path fill="#705A97" d="M319.525,48.101 C319.525,58.274 322.641,69.007 330.949,79.698 C336.893,87.329 349.241,100.403 369.159,100.532 C389.751,100.667 396.654,87.036 392.182,76.575 C388.251,67.37 372.754,59.368 355.718,61.095 C362.865,56.36 371.164,53.795 373.495,53.382 C373.874,53.309 373.869,52.968 373.495,53.006 C350.526,55.456 335.864,66.202 331.675,68.659 C331.368,68.847 331.487,69.097 331.747,69.06 C335.253,68.503 355.784,65.241 367.409,71.575 C380.714,78.812 372.114,95.835 354.71,89.696 C346.292,86.728 335.753,80.196 329.36,69.573 C322.968,58.952 324.891,40.324 328.211,32.68 C333.564,20.377 343.175,19.712 346.981,23.482 C350.655,27.117 349.467,34.14 342.505,43.49 C336.409,51.676 325.467,65.425 320.169,73.257 C314.872,81.106 311.029,88.071 312.826,98.548 C315.024,111.368 327.175,116.644 330.875,100.435 C333.314,89.724 329.371,81.925 326.986,76.925 C325.199,73.189 322.313,68.405 316.893,62.247 C310.073,54.491 302.559,51.02 295.927,55.143 C291.64,57.798 290.044,65.618 296.872,70.202 C304.742,75.47 314.542,74.007 318.879,72.72 C319.212,72.616 319.193,72.249 318.826,72.308 C314.218,72.983 305.486,71.269 301.758,68.347 C295.389,63.364 300.275,53.514 312.96,63.101 C321.903,69.86 329.855,82.978 324.556,97.579 C322.08,104.374 317.52,102.724 315.985,95.327 C315.212,91.624 315.391,87.175 317.706,81.743 C320.764,74.575 326.792,69.718 336.689,62.771 C349.746,53.613 363.888,42.321 369.786,27.488 C374.856,14.752 369.306,0 356.714,0 C334.861,0 319.525,22.886 319.525,48.101" mask="url(#b)"/><path fill="#626362" d="M13.784,76.206 C13.784,79.146 14.112,88.341 5.249,88.341 C3.494,88.341 1.457,88.054 -0.06,87.253 L-0.06,80.19 C0.792,81.327 2.167,82.175 3.637,82.175 C6.956,82.175 6.721,78.573 6.721,76.206 L6.721,52.031 L13.784,52.031 L13.784,76.206" mask="url(#b)"/><path fill="#626362" d="M29.044 66.63 28.239 61.231 28.141 61.231 27.384 66.63 25.868 76.159 30.844 76.159 29.044 66.63ZM32.171 52.031 40.751 87.776 33.213 87.776 31.885 81.753 24.729 81.753 23.45 87.776 16.433 87.776 24.729 52.031 32.171 52.031 32.171 52.031ZM50.658 67.298C54.07 67.437 56.011 66.163 56.011 62.507 56.011 59.944 55.017 57.862 51.983 57.862L50.658 57.862 50.658 67.298ZM43.594 87.776 43.594 52.031 50.942 52.031C52.459 52.031 63.076 51.089 63.076 62.601 63.076 69.292 58.76 73.126 52.219 73.126L50.658 73.03 50.658 87.776 43.594 87.776 43.594 87.776ZM73.505 66.63 72.696 61.231 72.603 61.231 71.845 66.63 70.327 76.159 75.305 76.159 73.505 66.63ZM76.631 52.031 85.213 87.776 77.676 87.776 76.347 81.753 69.191 81.753 67.909 87.776 60.895 87.776 69.191 52.031 76.631 52.031 76.631 52.031ZM93.884 52.031 102.702 73.606 102.797 73.505C102.368 71.798 102.227 69.95 102.227 68.101L102.227 52.031 109.292 52.031 109.292 87.776 102.608 87.776 93.884 66.202 93.792 66.3 94.122 69.907 94.169 71.372 94.169 87.776 87.105 87.776 87.105 52.031 93.884 52.031"/><polyline fill="#626362" points="126.022 55.067 117.915 55.067 117.915 67.677 125.596 67.677 125.596 70.708 117.915 70.708 117.915 87.776 114.6 87.776 114.6 52.031 126.022 52.031 126.022 55.067"/><path fill="#626362" d="M132.278 69.907C132.278 76.206 132.516 85.023 137.633 85.023 142.753 85.023 142.989 76.206 142.989 69.907 142.989 63.595 142.753 54.78 137.633 54.78 132.516 54.544 132.278 63.595 132.278 69.907ZM146.403 69.907C146.403 76.585 145.931 88.247 137.633 88.247 129.814 88.247 128.866 78.247 128.866 69.907 128.866 60.849 130.049 51.556 137.633 51.556 145.691 51.556 146.403 62.036 146.403 69.907L146.403 69.907ZM164.935 76.444C164.935 83.032 164.416 88.247 157.447 88.247 150.292 88.247 149.956 82.843 149.956 76.444L149.956 52.031 153.275 52.031 153.275 76.253C153.275 82.175 153.608 85.023 157.447 85.023 161.237 85.023 161.618 82.175 161.618 76.253L161.618 52.031 164.935 52.031 164.935 76.444M184.415 87.776 181.525 87.776 173.463 63.741C172.946 62.273 172.663 60.659 172.237 59.144L172.044 59.144C172.189 61.466 172.424 63.741 172.424 66.064L172.424 87.776 169.531 87.776 169.531 52.031 172.424 52.031 180.622 76.87C181.049 78.106 181.383 79.335 181.712 80.569L181.858 80.569C181.763 78.999 181.525 77.39 181.525 75.831L181.525 52.031 184.415 52.031 184.415 87.776M192.52 84.739 193.47 84.739C199.87 84.739 200.674 80.237 200.674 69.907 200.674 57.626 199.393 55.067 193.088 55.067L192.52 55.067 192.52 84.739ZM189.202 52.031 192.805 52.031C199.63 52.031 204.085 52.883 204.085 69.907 204.085 83.884 201.811 87.776 193.042 87.776L189.202 87.776 189.202 52.031 189.202 52.031ZM216.979 77.536 214.608 63.835C214.183 61.417 213.993 58.956 213.708 56.536L213.516 56.536C213.186 58.956 212.95 61.417 212.57 63.835L210.483 77.536 216.979 77.536ZM222.381 87.776 218.83 87.776 217.501 80.423 209.915 80.423 208.638 87.776 205.083 87.776 212.098 52.031 215.223 52.031 222.381 87.776 222.381 87.776Z"/><polyline fill="#626362" points="235.604 55.067 230.251 55.067 230.251 87.776 226.931 87.776 226.931 55.067 221.576 55.067 221.576 52.031 235.604 52.031 235.604 55.067"/><polygon fill="#626362" points="239.731 87.776 243.045 87.776 243.045 52.031 239.731 52.031"/><path fill="#626362" d="M250.155,69.907 C250.155,76.206 250.393,85.023 255.512,85.023 C260.63,85.023 260.87,76.206 260.87,69.907 C260.87,63.595 260.63,54.78 255.512,54.78 C250.393,54.544 250.155,63.595 250.155,69.907 Z M264.282,69.907 C264.282,76.585 263.808,88.247 255.512,88.247 C247.69,88.247 246.743,78.247 246.743,69.907 C246.743,60.849 247.928,51.556 255.512,51.556 C263.571,51.556 264.282,62.036 264.282,69.907 L264.282,69.907 Z"/><path fill="#636463" d="M282.055,87.776 L279.163,87.776 L271.106,63.741 C270.583,62.273 270.299,60.659 269.874,59.144 L269.682,59.144 C269.827,61.466 270.063,63.741 270.063,66.064 L270.063,87.776 L267.171,87.776 L267.171,52.031 L270.063,52.031 L278.262,76.87 C278.69,78.106 279.02,79.335 279.352,80.569 L279.497,80.569 C279.401,78.999 279.163,77.39 279.163,75.831 L279.163,52.031 L282.055,52.031 L282.055,87.776"/><g fill="#626362" transform="translate(154.469 95.983)"><polyline points="8.712 14.269 0 14.269 0 .287 1.726 .287 1.726 12.766 8.712 12.766 8.712 14.269"/><path d="M16.105 1.475C14.658 1.475 13.533 1.982 12.728 2.996 11.925 4.011 11.523 5.439 11.523 7.283 11.523 9.126 11.925 10.553 12.728 11.564 13.533 12.575 14.658 13.081 16.105 13.081 17.547 13.081 18.67 12.575 19.473 11.564 20.277 10.553 20.679 9.126 20.679 7.283 20.679 5.428 20.277 3.995 19.473 2.987 18.67 1.979 17.547 1.475 16.105 1.475ZM16.096 14.557C14.111 14.557 12.553 13.915 11.421 12.631 10.289 11.348 9.722 9.564 9.722 7.283 9.722 5.007 10.29 3.224 11.426 1.935 12.56.644 14.117 0 16.096 0 18.082 0 19.641.644 20.777 1.935 21.912 3.224 22.479 5.007 22.479 7.283 22.479 9.553 21.912 11.332 20.777 12.622 19.641 13.911 18.082 14.557 16.096 14.557L16.096 14.557ZM29.344 14.519C27.773 14.519 26.125 14.129 24.399 13.35L24.399 11.244 24.519 11.244C25.942 12.456 27.556 13.062 29.363 13.062 30.476 13.062 31.349 12.835 31.983 12.381 32.617 11.926 32.934 11.321 32.934 10.566 32.934 9.985 32.8 9.529 32.531 9.198 32.262 8.868 31.793 8.609 31.125 8.424L28.008 7.793C26.851 7.552 25.974 7.114 25.378 6.48 24.781 5.847 24.482 5.022 24.482 4.008 24.482 2.857 24.947 1.908 25.875 1.16 26.803.411 28.012.037 29.502.037 31.06.037 32.619.381 34.178 1.066L34.178 3.099 34.048 3.099C32.762 2.028 31.246 1.494 29.502 1.494 28.537 1.494 27.759 1.707 27.169 2.134 26.578 2.561 26.283 3.12 26.283 3.812 26.283 4.97 26.957 5.715 28.304 6.049 29.084 6.191 29.952 6.369 30.907 6.582 31.863 6.796 32.546 7.019 32.958 7.25 33.369 7.482 33.703 7.746 33.96 8.043 34.216 8.34 34.408 8.678 34.535 9.055 34.661 9.432 34.724 9.85 34.724 10.307 34.724 11.519 34.233 12.524 33.25 13.322 32.266 14.12 30.965 14.519 29.344 14.519M50.765 8.842 48.252 1.948 45.746 8.842 50.765 8.842ZM52.722 14.269 51.285 10.279 45.218 10.279 43.779 14.269 42.026 14.269 47.203.287 49.402.287 54.569 14.269 52.722 14.269 52.722 14.269Z"/><polyline points="67.103 14.269 65.099 14.269 58.057 2.134 58.057 14.269 56.453 14.269 56.453 .287 58.846 .287 65.498 11.754 65.498 .287 67.103 .287 67.103 14.269"/><path d="M81.64,13.229 C79.637,14.102 77.998,14.537 76.723,14.537 C74.497,14.537 72.766,13.906 71.533,12.644 C70.299,11.383 69.681,9.59 69.681,7.264 C69.681,5.007 70.309,3.238 71.565,1.957 C72.821,0.678 74.54,0.037 76.723,0.037 C78.338,0.037 79.973,0.461 81.631,1.309 L81.631,3.34 L81.502,3.34 C79.986,2.109 78.295,1.494 76.427,1.494 C74.892,1.494 73.685,2.007 72.804,3.033 C71.923,4.061 71.482,5.452 71.482,7.209 C71.482,9.045 71.941,10.482 72.859,11.518 C73.778,12.554 75.038,13.072 76.64,13.072 C77.815,13.072 78.913,12.85 79.933,12.404 L79.933,8.805 L76.306,8.805 L76.306,7.301 L81.64,7.301 L81.64,13.229"/><polyline points="93.47 14.269 84.369 14.269 84.369 .287 93.47 .287 93.47 1.791 86.094 1.791 86.094 5.863 93.284 5.863 93.284 7.366 86.094 7.366 86.094 12.766 93.47 12.766 93.47 14.269"/><polyline points="104.816 14.269 96.105 14.269 96.105 .287 97.83 .287 97.83 12.766 104.816 12.766 104.816 14.269"/><polyline points="115.782 14.269 106.681 14.269 106.681 .287 115.782 .287 115.782 1.791 108.406 1.791 108.406 5.863 115.596 5.863 115.596 7.366 108.406 7.366 108.406 12.766 115.782 12.766 115.782 14.269"/><path d="M122.703,14.519 C121.133,14.519 119.484,14.129 117.759,13.35 L117.759,11.244 L117.879,11.244 C119.302,12.456 120.916,13.062 122.722,13.062 C123.836,13.062 124.709,12.835 125.343,12.381 C125.976,11.926 126.294,11.321 126.294,10.566 C126.294,9.985 126.159,9.529 125.89,9.198 C125.621,8.868 125.152,8.609 124.484,8.424 L121.367,7.793 C120.211,7.552 119.334,7.114 118.737,6.48 C118.14,5.847 117.842,5.022 117.842,4.008 C117.842,2.857 118.306,1.908 119.234,1.16 C120.162,0.411 121.371,0.037 122.861,0.037 C124.42,0.037 125.978,0.381 127.537,1.066 L127.537,3.099 L127.407,3.099 C126.121,2.028 124.605,1.494 122.861,1.494 C121.896,1.494 121.118,1.707 120.528,2.134 C119.937,2.561 119.642,3.12 119.642,3.812 C119.642,4.97 120.316,5.715 121.664,6.049 C122.443,6.191 123.311,6.369 124.266,6.582 C125.222,6.796 125.905,7.019 126.317,7.25 C126.728,7.482 127.062,7.746 127.319,8.043 C127.575,8.34 127.767,8.678 127.894,9.055 C128.02,9.432 128.084,9.85 128.084,10.307 C128.084,11.519 127.593,12.524 126.609,13.322 C125.626,14.12 124.324,14.519 122.703,14.519"/></g></g></svg>