<svg xmlns="http://www.w3.org/2000/svg" width="108" height="77" viewBox="0 0 108 77"><path fill="#FFF" fill-rule="evenodd" d="M17.9462074,17.1297983 C22.1801142,17.1297983 26.5189467,17.6333915 29.2459365,21.0669813 L29.2459365,17.2518815 L42.3061229,17.2518815 L42.3061229,56.3937158 L29.2459365,56.3937158 L29.2459365,52.044502 L29.1023353,52.044502 C26.8057909,55.9359038 22.2520939,56.6447857 17.9462074,56.6447857 C7.0389642,56.6447857 0,47.9245575 0,36.7085273 C0,25.4928605 7.03860609,17.1297983 17.9462074,17.1297983 Z M96.6890687,0 L96.6890687,17.2965726 L103,17.2965726 L103,28.7015411 L96.6890687,28.7015411 L96.6890687,56.3014267 L82.7493698,56.3014267 L82.7493698,28.7015411 L76.4291277,28.7015411 L76.4291277,17.2965726 L82.7493698,17.2965726 L82.7493698,0 L96.6890687,0 Z M58.8990415,17.3826849 L58.8996123,17.4435385 C58.90456,17.9779398 58.9390507,21.8506116 58.8990415,21.8002072 C62.7064421,18.3993182 65.5791818,17.3935852 71.0689722,17.3935852 L73.679219,17.3935852 L73.679219,28.7124414 C73.6738474,28.7200716 73.4371382,28.6721103 71.8879645,28.620879 C64.771649,28.620879 58.8990415,32.0708193 58.8990415,40.5370708 L58.8990415,56.2087743 L45.3260449,56.2087743 L45.3260449,17.3826849 L58.8990415,17.3826849 Z M21.2801897,28.010463 C15.9701693,28.010463 12.8847137,32.0541055 12.8847137,36.8611313 C12.8847137,41.8200344 15.9701693,45.6351342 21.2801897,45.6351342 C26.5905682,45.6351342 29.6763819,41.8200344 29.6763819,36.8611313 C29.6763819,32.0541055 26.5905682,28.010463 21.2801897,28.010463 Z M6.01871547,0.854219021 C9.79961616,0.854219021 12.9144366,3.86887458 12.9144366,7.74247261 C12.9144366,11.6160707 9.78171078,14.6310896 6.01871547,14.6310896 L1.01380279,14.6310896 L1.01380279,0.854219021 L6.01871547,0.854219021 Z M29.8142534,0.854219021 L36.2780967,9.27723278 L36.3135493,9.27723278 L36.3135493,0.854219021 L39.8423422,0.854219021 L39.8423422,14.6310896 L36.3135493,14.6310896 L29.8504223,6.18954531 L29.8142534,6.18954531 L29.8142534,14.6310896 L26.2854605,14.6310896 L26.2854605,0.854219021 L29.8142534,0.854219021 Z M45.3482475,0.854219021 L48.6249326,9.22236801 L51.9198812,0.854219021 L55.7548562,0.854219021 L49.9574512,14.6307262 L47.2207925,14.6307262 L41.5136307,0.854219021 L45.3482475,0.854219021 Z M74.0262253,0.853855678 C76.7088098,0.853855678 78.7435775,2.15171631 78.7435775,5.09297661 C78.7435775,6.99325968 77.6996937,8.63774938 75.7727164,8.98474179 L80.0395692,14.6307262 L75.6466625,14.6307262 L72.3162612,9.33209755 L72.2800923,9.33209755 L72.2800923,14.6307262 L68.7512994,14.6307262 L68.7512994,0.853855678 L74.0262253,0.853855678 Z M65.5795399,0.853855678 L65.5795399,3.88740506 L61.0265591,3.88740506 L61.0265591,6.18954531 L65.363601,6.18954531 L65.363601,9.22236801 L61.0265591,9.22236801 L61.0265591,11.5975402 L65.5795399,11.5975402 L65.5795399,14.6307262 L57.4981243,14.6307262 L57.4981243,0.853855678 L65.5795399,0.853855678 Z M23.1548833,0.853855678 L23.1548833,3.88740506 L18.6019025,3.88740506 L18.6019025,6.18954531 L22.9385863,6.18954531 L22.9385863,9.22236801 L18.6019025,9.22236801 L18.6019025,11.5975402 L23.1548833,11.5975402 L23.1548833,14.6307262 L15.0731096,14.6307262 L15.0731096,0.853855678 L23.1548833,0.853855678 Z M5.37089871,3.88740506 L4.54259569,3.88740506 L4.54259569,11.5979035 L5.33508794,11.5979035 C7.4411191,11.5979035 9.24132632,10.4286662 9.24132632,7.74247261 C9.24132632,5.27610141 7.63951075,3.88740506 5.37089871,3.88740506 Z M72.6220852,3.59455073 L72.2800923,3.59455073 L72.2800923,7.0299573 L72.6220852,7.0299573 C73.7748337,7.0299573 75.0704672,6.81086157 75.0704672,5.31243569 C75.0704672,3.81400981 73.7748337,3.59455073 72.6220852,3.59455073 Z M3.58895499,58.9440192 L7.47155826,58.9440192 L10.5494936,67.1722812 L13.8086314,58.9440192 L17.7317009,58.9440192 L20.0250223,74.3388554 L16.0818989,74.3388554 L14.9753462,65.4776502 L14.9352381,65.4776502 L11.2939994,74.3388554 L9.72477166,74.3388554 L6.2443233,65.4776502 L6.20421524,65.4776502 L4.93687223,74.3388554 L1.01380279,74.3388554 L3.58895499,58.9440192 M35.5267868,58.9440192 L35.5267868,67.6010257 C35.5267868,69.5812442 35.4465707,71.5414789 33.9378631,73.0319112 C32.670162,74.2977977 30.6783672,74.7472527 28.9078829,74.7472527 C27.1377567,74.7472527 25.14632,74.2977977 23.8786189,73.0319112 C22.3699113,71.5414789 22.2893371,69.5812442 22.2893371,67.6010257 L22.2893371,58.9440192 L26.2324605,58.9440192 L26.2324605,67.0494713 C26.2324605,69.0507637 26.3731969,71.2355442 28.9078829,71.2355442 C31.442927,71.2355442 31.5840214,69.0507637 31.5840214,67.0494713 L31.5840214,58.9440192 L35.5267868,58.9440192 M46.8035971,62.9051828 C46.0791453,62.2925868 45.1537951,61.8841895 44.1886949,61.8841895 C43.4642431,61.8841895 42.4984268,62.3132974 42.4984268,63.1704231 C42.4984268,64.06897 43.5645133,64.4159624 44.248857,64.6405083 L45.2547814,64.9471696 C47.3669004,65.5797495 48.9962903,66.6621478 48.9962903,69.1524997 C48.9962903,70.6839897 48.6346015,72.2561742 47.4277787,73.2971515 C46.2406518,74.3185082 44.65137,74.7472527 43.1222503,74.7472527 C41.2113878,74.7472527 39.3399172,74.0939623 37.7907434,72.9912168 L39.4810116,69.765459 C40.466882,70.6432953 41.6332386,71.3576274 42.981514,71.3576274 C43.9068642,71.3576274 44.8923765,70.8878251 44.8923765,69.8057901 C44.8923765,68.6826974 43.3432027,68.2953739 42.4984268,68.0497541 C40.0242609,67.3354221 38.3941548,66.6821317 38.3941548,63.701267 C38.3941548,60.5776086 40.5872062,58.5356218 43.6250335,58.5356218 C45.1537951,58.5356218 47.0252657,59.0257713 48.373183,59.8018716 L46.8035971,62.9051828 M56.2780515,62.3336446 L56.2780515,64.9061119 L61.4401734,64.9061119 L61.4401734,68.2953739 L56.2780515,68.2953739 L56.2780515,70.94923 L61.681538,70.94923 L61.681538,74.3388554 L52.3352861,74.3388554 L52.3352861,58.9436558 L61.681538,58.9436558 L61.681538,62.3336446 L56.2780515,62.3336446 M78.2576254,58.9440192 L78.2576254,67.6010257 C78.2576254,69.5812442 78.1774093,71.5414789 76.6687017,73.0319112 C75.4010006,74.2977977 73.4092058,74.7472527 71.6390796,74.7472527 C69.8685953,74.7472527 67.8771586,74.2977977 66.6094575,73.0319112 C65.1007499,71.5414789 65.0201757,69.5812442 65.0201757,67.6010257 L65.0201757,58.9440192 L68.9632992,58.9440192 L68.9632992,67.0494713 C68.9632992,69.0507637 69.1040355,71.2355442 71.6390796,71.2355442 C74.1737657,71.2355442 74.3148601,69.0507637 74.3148601,67.0494713 L74.3148601,58.9440192 L78.2576254,58.9440192 M82.7386266,58.9440192 L86.6212299,58.9440192 L89.6995233,67.1722812 L92.9583031,58.9440192 L96.8813725,58.9440192 L99.1750521,74.3388554 L95.2315705,74.3388554 L94.1250178,65.4776502 L94.0852679,65.4776502 L90.4440292,74.3388554 L88.8744433,74.3388554 L85.3939949,65.4776502 L85.354245,65.4776502 L84.086902,74.3388554 L80.1638325,74.3388554 L82.7386266,58.9440192" transform="translate(3 1)"/></svg>